0
SECTION
2
HEADER
9
$ACADVER
1
AC1009
0
ENDSEC
0
SECTION
2
TABLES
0
TABLE
2
LAYER
70
9
0
LAYER
2
A-ASSEN
70
0
62
7
6
CONTINUOUS
0
LAYER
2
A-MAATVOERING
70
0
62
7
6
CONTINUOUS
0
LAYER
2
S-FUNDERING-STROOK
70
0
62
7
6
CONTINUOUS
0
LAYER
2
S-FUNDERING-BALK
70
0
62
7
6
CONTINUOUS
0
LAYER
2
S-KOLOMMEN
70
0
62
7
6
CONTINUOUS
0
LAYER
2
S-BALKEN
70
0
62
7
6
CONTINUOUS
0
LAYER
2
S-DAK
70
0
62
7
6
CONTINUOUS
0
LAYER
2
T-TEKST
70
0
62
7
6
CONTINUOUS
0
LAYER
2
P-PROJECTKADER
70
0
62
7
6
CONTINUOUS
0
ENDTAB
0
ENDSEC
0
SECTION
2
ENTITIES
0
TEXT
8
T-TEKST
10
0.0000
20
15.0000
30
0
40
0.3500
1
SITUATIE CONCEPT - Project Phoenix intake test
0
TEXT
8
T-TEKST
10
0.0000
20
14.2000
30
0
40
0.2500
1
Locatie: Locatie nog te bepalen
0
LINE
8
P-PROJECTKADER
10
-4.0000
20
-4.0000
30
0
11
14.0000
21
-4.0000
31
0
0
LINE
8
P-PROJECTKADER
10
14.0000
20
-4.0000
30
0
11
14.0000
21
14.0000
31
0
0
LINE
8
P-PROJECTKADER
10
14.0000
20
14.0000
30
0
11
-4.0000
21
14.0000
31
0
0
LINE
8
P-PROJECTKADER
10
-4.0000
20
14.0000
30
0
11
-4.0000
21
-4.0000
31
0
0
LINE
8
S-BALKEN
10
0.0000
20
0.0000
30
0
11
10.0000
21
0.0000
31
0
0
LINE
8
S-BALKEN
10
10.0000
20
0.0000
30
0
11
10.0000
21
10.0000
31
0
0
LINE
8
S-BALKEN
10
10.0000
20
10.0000
30
0
11
0.0000
21
10.0000
31
0
0
LINE
8
S-BALKEN
10
0.0000
20
10.0000
30
0
11
0.0000
21
0.0000
31
0
0
TEXT
8
T-TEKST
10
11.0000
20
5.0000
30
0
40
0.2500
1
CONCEPT FOOTPRINT
0
LINE
8
A-ASSEN
10
12.0000
20
11.0000
30
0
11
12.0000
21
13.0000
31
0
0
LINE
8
A-ASSEN
10
12.0000
20
13.0000
30
0
11
11.6000
21
12.4000
31
0
0
LINE
8
A-ASSEN
10
12.0000
20
13.0000
30
0
11
12.4000
21
12.4000
31
0
0
TEXT
8
T-TEKST
10
12.2500
20
12.2000
30
0
40
0.3000
1
N
0
ENDSEC
0
EOF
