0
SECTION
2
HEADER
9
$ACADVER
1
AC1009
0
ENDSEC
0
SECTION
2
TABLES
0
TABLE
2
LAYER
70
9
0
LAYER
2
A-ASSEN
70
0
62
7
6
CONTINUOUS
0
LAYER
2
A-MAATVOERING
70
0
62
7
6
CONTINUOUS
0
LAYER
2
S-FUNDERING-STROOK
70
0
62
7
6
CONTINUOUS
0
LAYER
2
S-FUNDERING-BALK
70
0
62
7
6
CONTINUOUS
0
LAYER
2
S-KOLOMMEN
70
0
62
7
6
CONTINUOUS
0
LAYER
2
S-BALKEN
70
0
62
7
6
CONTINUOUS
0
LAYER
2
S-DAK
70
0
62
7
6
CONTINUOUS
0
LAYER
2
T-TEKST
70
0
62
7
6
CONTINUOUS
0
LAYER
2
P-PROJECTKADER
70
0
62
7
6
CONTINUOUS
0
ENDTAB
0
ENDSEC
0
SECTION
2
ENTITIES
0
TEXT
8
T-TEKST
10
0.0000
20
13.0000
30
0
40
0.3500
1
CONSTRUCTIE CONCEPT - Project Phoenix intake test
0
LINE
8
A-ASSEN
10
0.0000
20
-0.6000
30
0
11
0.0000
21
10.6000
31
0
0
TEXT
8
T-TEKST
10
-0.0800
20
-0.9500
30
0
40
0.2200
1
A
0
LINE
8
A-ASSEN
10
5.0000
20
-0.6000
30
0
11
5.0000
21
10.6000
31
0
0
TEXT
8
T-TEKST
10
4.9200
20
-0.9500
30
0
40
0.2200
1
B
0
LINE
8
A-ASSEN
10
10.0000
20
-0.6000
30
0
11
10.0000
21
10.6000
31
0
0
TEXT
8
T-TEKST
10
9.9200
20
-0.9500
30
0
40
0.2200
1
C
0
LINE
8
A-ASSEN
10
-0.6000
20
0.0000
30
0
11
10.6000
21
0.0000
31
0
0
TEXT
8
T-TEKST
10
-1.0000
20
-0.0800
30
0
40
0.2200
1
1
0
LINE
8
A-ASSEN
10
-0.6000
20
5.0000
30
0
11
10.6000
21
5.0000
31
0
0
TEXT
8
T-TEKST
10
-1.0000
20
4.9200
30
0
40
0.2200
1
2
0
LINE
8
A-ASSEN
10
-0.6000
20
10.0000
30
0
11
10.6000
21
10.0000
31
0
0
TEXT
8
T-TEKST
10
-1.0000
20
9.9200
30
0
40
0.2200
1
3
0
LINE
8
S-BALKEN
10
0.0000
20
0.0000
30
0
11
10.0000
21
0.0000
31
0
0
LINE
8
S-BALKEN
10
10.0000
20
0.0000
30
0
11
10.0000
21
10.0000
31
0
0
LINE
8
S-BALKEN
10
10.0000
20
10.0000
30
0
11
0.0000
21
10.0000
31
0
0
LINE
8
S-BALKEN
10
0.0000
20
10.0000
30
0
11
0.0000
21
0.0000
31
0
0
CIRCLE
8
S-KOLOMMEN
10
0.0000
20
0.0000
30
0
40
0.1500
0
CIRCLE
8
S-KOLOMMEN
10
0.0000
20
5.0000
30
0
40
0.1500
0
CIRCLE
8
S-KOLOMMEN
10
0.0000
20
10.0000
30
0
40
0.1500
0
CIRCLE
8
S-KOLOMMEN
10
5.0000
20
0.0000
30
0
40
0.1500
0
CIRCLE
8
S-KOLOMMEN
10
5.0000
20
5.0000
30
0
40
0.1500
0
CIRCLE
8
S-KOLOMMEN
10
5.0000
20
10.0000
30
0
40
0.1500
0
CIRCLE
8
S-KOLOMMEN
10
10.0000
20
0.0000
30
0
40
0.1500
0
CIRCLE
8
S-KOLOMMEN
10
10.0000
20
5.0000
30
0
40
0.1500
0
CIRCLE
8
S-KOLOMMEN
10
10.0000
20
10.0000
30
0
40
0.1500
0
LINE
8
S-BALKEN
10
0.0000
20
0.0000
30
0
11
10.0000
21
0.0000
31
0
0
LINE
8
S-BALKEN
10
0.0000
20
5.0000
30
0
11
10.0000
21
5.0000
31
0
0
LINE
8
S-BALKEN
10
0.0000
20
10.0000
30
0
11
10.0000
21
10.0000
31
0
0
LINE
8
S-BALKEN
10
0.0000
20
0.0000
30
0
11
0.0000
21
10.0000
31
0
0
LINE
8
S-BALKEN
10
5.0000
20
0.0000
30
0
11
5.0000
21
10.0000
31
0
0
LINE
8
S-BALKEN
10
10.0000
20
0.0000
30
0
11
10.0000
21
10.0000
31
0
0
LINE
8
S-DAK
10
0.0000
20
0.0000
30
0
11
10.0000
21
10.0000
31
0
0
LINE
8
S-DAK
10
0.0000
20
10.0000
30
0
11
10.0000
21
0.0000
31
0
0
TEXT
8
T-TEKST
10
0.0000
20
-1.2000
30
0
40
0.2200
1
Concept: kolommen/balken/dakschoren; definitief na geometrie en berekening.
0
ENDSEC
0
EOF
