0
SECTION
2
HEADER
9
$ACADVER
1
AC1009
0
ENDSEC
0
SECTION
2
TABLES
0
TABLE
2
LAYER
70
9
0
LAYER
2
A-ASSEN
70
0
62
7
6
CONTINUOUS
0
LAYER
2
A-MAATVOERING
70
0
62
7
6
CONTINUOUS
0
LAYER
2
S-FUNDERING-STROOK
70
0
62
7
6
CONTINUOUS
0
LAYER
2
S-FUNDERING-BALK
70
0
62
7
6
CONTINUOUS
0
LAYER
2
S-KOLOMMEN
70
0
62
7
6
CONTINUOUS
0
LAYER
2
S-BALKEN
70
0
62
7
6
CONTINUOUS
0
LAYER
2
S-DAK
70
0
62
7
6
CONTINUOUS
0
LAYER
2
T-TEKST
70
0
62
7
6
CONTINUOUS
0
LAYER
2
P-PROJECTKADER
70
0
62
7
6
CONTINUOUS
0
ENDTAB
0
ENDSEC
0
SECTION
2
ENTITIES
0
TEXT
8
T-TEKST
10
0.0000
20
5.0000
30
0
40
0.3500
1
DOORSNEDE CONCEPT - Project Phoenix intake test
0
LINE
8
A-ASSEN
10
0.0000
20
0.0000
30
0
11
10.0000
21
0.0000
31
0
0
TEXT
8
T-TEKST
10
10.4000
20
0.0000
30
0
40
0.2200
1
P = 0,00 maaiveld
0
LINE
8
A-MAATVOERING
10
0.0000
20
-0.5000
30
0
11
10.0000
21
-0.5000
31
0
0
TEXT
8
T-TEKST
10
10.4000
20
-0.5000
30
0
40
0.2200
1
grondwater P = -0,50 m
0
LINE
8
S-FUNDERING-STROOK
10
1.0000
20
-0.9000
30
0
11
9.0000
21
-0.9000
31
0
0
LINE
8
S-FUNDERING-STROOK
10
9.0000
20
-0.9000
30
0
11
9.0000
21
-0.5000
31
0
0
LINE
8
S-FUNDERING-STROOK
10
9.0000
20
-0.5000
30
0
11
1.0000
21
-0.5000
31
0
0
LINE
8
S-FUNDERING-STROOK
10
1.0000
20
-0.5000
30
0
11
1.0000
21
-0.9000
31
0
0
LINE
8
S-FUNDERING-BALK
10
4.7500
20
-1.1000
30
0
11
5.2500
21
-1.1000
31
0
0
LINE
8
S-FUNDERING-BALK
10
5.2500
20
-1.1000
30
0
11
5.2500
21
-0.5000
31
0
0
LINE
8
S-FUNDERING-BALK
10
5.2500
20
-0.5000
30
0
11
4.7500
21
-0.5000
31
0
0
LINE
8
S-FUNDERING-BALK
10
4.7500
20
-0.5000
30
0
11
4.7500
21
-1.1000
31
0
0
LINE
8
S-KOLOMMEN
10
5.0000
20
-0.5000
30
0
11
5.0000
21
3.2000
31
0
0
LINE
8
S-DAK
10
1.0000
20
3.2000
30
0
11
9.0000
21
3.2000
31
0
0
LINE
8
S-DAK
10
1.0000
20
3.2000
30
0
11
5.0000
21
4.2000
31
0
0
LINE
8
S-DAK
10
5.0000
20
4.2000
30
0
11
9.0000
21
3.2000
31
0
0
TEXT
8
T-TEKST
10
0.0000
20
-1.6000
30
0
40
0.2200
1
Conceptdoorsnede; hoogten/peilen definitief uit projectgegevens.
0
ENDSEC
0
EOF
