0
SECTION
2
HEADER
9
$ACADVER
1
AC1009
0
ENDSEC
0
SECTION
2
TABLES
0
TABLE
2
LAYER
70
4
0
LAYER
2
0
70
0
62
7
6
CONTINUOUS
0
LAYER
2
BAOEES_PROJECT
70
0
62
7
6
CONTINUOUS
0
LAYER
2
BAOEES_GEOMETRY
70
0
62
7
6
CONTINUOUS
0
LAYER
2
BAOEES_TEXT
70
0
62
7
6
CONTINUOUS
0
ENDTAB
0
ENDSEC
0
SECTION
2
ENTITIES
0
LINE
8
BAOEES_GEOMETRY
10
0
20
0
30
0
11
60
21
0
31
0
0
LINE
8
BAOEES_GEOMETRY
10
60
20
0
30
0
11
60
21
40
31
0
0
LINE
8
BAOEES_GEOMETRY
10
60
20
40
30
0
11
0
21
40
31
0
0
LINE
8
BAOEES_GEOMETRY
10
0
20
40
30
0
11
0
21
0
31
0
0
LINE
8
BAOEES_GEOMETRY
10
20
20
0
30
0
11
20
21
40
31
0
0
LINE
8
BAOEES_GEOMETRY
10
40
20
0
30
0
11
40
21
40
31
0
0
LINE
8
BAOEES_GEOMETRY
10
0
20
20
30
0
11
60
21
20
31
0
0
TEXT
8
BAOEES_TEXT
10
3
20
32
30
0
40
2.5
1
Ruimte 1
0
TEXT
8
BAOEES_TEXT
10
23
20
32
30
0
40
2.5
1
Ruimte 2
0
TEXT
8
BAOEES_TEXT
10
43
20
32
30
0
40
2.5
1
Ruimte 3
0
TEXT
8
BAOEES_TEXT
10
2
20
-8
30
0
40
3
1
Schematische plattegrond
0
LINE
8
BAOEES_PROJECT
10
0
20
-40
30
0
11
100
21
-40
31
0
0
LINE
8
BAOEES_PROJECT
10
100
20
-40
30
0
11
100
21
-22
31
0
0
LINE
8
BAOEES_PROJECT
10
100
20
-22
30
0
11
0
21
-22
31
0
0
LINE
8
BAOEES_PROJECT
10
0
20
-22
30
0
11
0
21
-40
31
0
0
TEXT
8
BAOEES_TEXT
10
2
20
-26
30
0
40
2.5
1
Titel: Bruynzeel Waterfront District - Plattegrond
0
TEXT
8
BAOEES_TEXT
10
2
20
-30
30
0
40
2.5
1
Project: Bruynzeel Waterfront District
0
TEXT
8
BAOEES_TEXT
10
2
20
-34
30
0
40
2.5
1
Locatie: Paramaribo, Suriname, Suriname
0
TEXT
8
BAOEES_TEXT
10
2
20
-38
30
0
40
2.5
1
Type: Gebiedsontwikkeling | BAOEES V3 DXF export
0
ENDSEC
0
EOF