0
SECTION
2
HEADER
0
ENDSEC
0
SECTION
2
ENTITIES
0
LINE
8
PHOENIX
10
10
20
10
30
0
11
410
21
10
31
0
0
LINE
8
PHOENIX
10
410
20
10
30
0
11
410
21
287
31
0
0
LINE
8
PHOENIX
10
410
20
287
30
0
11
10
21
287
31
0
0
LINE
8
PHOENIX
10
10
20
287
30
0
11
10
21
10
31
0
0
LINE
8
PHOENIX
10
10
20
44
30
0
11
410
21
44
31
0
0
LINE
8
PHOENIX
10
280
20
10
30
0
11
280
21
44
31
0
0
TEXT
8
PHOENIX-TEXT
10
14
20
33
30
0
40
4.586
1
Uitbreiding moskee Haci Bayram
50
0
0
TEXT
8
PHOENIX-TEXT
10
14
20
25
30
0
40
3.175
1
Bikkersweg 88, Bunschoten
50
0
0
TEXT
8
PHOENIX-TEXT
10
14
20
17
30
0
40
3.528
1
CONCEPT - NOT FOR SUBMISSION OR EXECUTION
50
0
0
TEXT
8
PHOENIX-TEXT
10
284
20
35
30
0
40
3.881
1
SHEET A-001
50
0
0
TEXT
8
PHOENIX-TEXT
10
284
20
27
30
0
40
3.175
1
Situation and parking concept
50
0
0
TEXT
8
PHOENIX-TEXT
10
284
20
19
30
0
40
2.822
1
Scale 1:250 | ARCHITECTURE / PARKING
50
0
0
TEXT
8
PHOENIX-TEXT
10
406
20
19
30
0
40
2.822
1
Issue 2026-07-27
50
0
0
TEXT
8
PHOENIX-TEXT
10
406
20
35
30
0
40
3.528
1
PROJECT PHOENIX
50
0
0
LINE
8
PHOENIX
10
55
20
80
30
0
11
287
21
80
31
0
0
LINE
8
PHOENIX
10
287
20
80
30
0
11
287
21
240
31
0
0
LINE
8
PHOENIX
10
287
20
240
30
0
11
55
21
240
31
0
0
LINE
8
PHOENIX
10
55
20
240
30
0
11
55
21
80
31
0
0
TEXT
8
PHOENIX-TEXT
10
171
20
247
30
0
40
3.175
1
SCHEMATIC PROJECT AREA - CADASTRAL VALIDATION PENDING
50
0
0
LINE
8
PHOENIX
10
55
20
148
30
0
11
287
21
148
31
0
0
LINE
8
PHOENIX
10
287
20
148
30
0
11
287
21
172
31
0
0
LINE
8
PHOENIX
10
287
20
172
30
0
11
55
21
172
31
0
0
LINE
8
PHOENIX
10
55
20
172
30
0
11
55
21
148
31
0
0
TEXT
8
PHOENIX-TEXT
10
171
20
160
30
0
40
2.822
1
Bikkersweg / local access
50
0
0
LINE
8
PHOENIX
10
135
20
172
30
0
11
183
21
172
31
0
0
LINE
8
PHOENIX
10
183
20
172
30
0
11
183
21
228
31
0
0
LINE
8
PHOENIX
10
183
20
228
30
0
11
135
21
228
31
0
0
LINE
8
PHOENIX
10
135
20
228
30
0
11
135
21
172
31
0
0
TEXT
8
PHOENIX-TEXT
10
159
20
200
30
0
40
2.822
1
Existing mosque reference
50
0
0
LINE
8
PHOENIX
10
183
20
180
30
0
11
211
21
180
31
0
0
LINE
8
PHOENIX
10
211
20
180
30
0
11
211
21
220
31
0
0
LINE
8
PHOENIX
10
211
20
220
30
0
11
183
21
220
31
0
0
LINE
8
PHOENIX
10
183
20
220
30
0
11
183
21
180
31
0
0
TEXT
8
PHOENIX-TEXT
10
197
20
200
30
0
40
2.822
1
7 x 10 m extension
50
0
0
LINE
8
PHOENIX
10
267
20
208
30
0
11
267
21
232
31
0
0
LINE
8
PHOENIX
10
267
20
232
30
0
11
265.25
21
228.969
31
0
0
LINE
8
PHOENIX
10
267
20
232
30
0
11
268.75
21
228.969
31
0
0
TEXT
8
PHOENIX-TEXT
10
267
20
224
30
0
40
2.469
1
N
50
0
0
LINE
8
PHOENIX
10
67
20
180
30
0
11
123
21
180
31
0
0
LINE
8
PHOENIX
10
123
20
180
30
0
11
123
21
220
31
0
0
LINE
8
PHOENIX
10
123
20
220
30
0
11
67
21
220
31
0
0
LINE
8
PHOENIX
10
67
20
220
30
0
11
67
21
180
31
0
0
TEXT
8
PHOENIX-TEXT
10
95
20
202
30
0
40
2.822
1
P-A - 70 spaces
50
0
0
LINE
8
PHOENIX
10
72.6
20
180
30
0
11
72.6
21
220
31
0
0
LINE
8
PHOENIX
10
78.2
20
180
30
0
11
78.2
21
220
31
0
0
LINE
8
PHOENIX
10
83.8
20
180
30
0
11
83.8
21
220
31
0
0
LINE
8
PHOENIX
10
89.4
20
180
30
0
11
89.4
21
220
31
0
0
LINE
8
PHOENIX
10
95
20
180
30
0
11
95
21
220
31
0
0
LINE
8
PHOENIX
10
100.6
20
180
30
0
11
100.6
21
220
31
0
0
LINE
8
PHOENIX
10
106.2
20
180
30
0
11
106.2
21
220
31
0
0
LINE
8
PHOENIX
10
111.8
20
180
30
0
11
111.8
21
220
31
0
0
LINE
8
PHOENIX
10
117.4
20
180
30
0
11
117.4
21
220
31
0
0
LINE
8
PHOENIX
10
67
20
92
30
0
11
127
21
92
31
0
0
LINE
8
PHOENIX
10
127
20
92
30
0
11
127
21
132
31
0
0
LINE
8
PHOENIX
10
127
20
132
30
0
11
67
21
132
31
0
0
LINE
8
PHOENIX
10
67
20
132
30
0
11
67
21
92
31
0
0
TEXT
8
PHOENIX-TEXT
10
97
20
114
30
0
40
2.822
1
P-B - 50 spaces
50
0
0
LINE
8
PHOENIX
10
75.571
20
92
30
0
11
75.571
21
132
31
0
0
LINE
8
PHOENIX
10
84.143
20
92
30
0
11
84.143
21
132
31
0
0
LINE
8
PHOENIX
10
92.714
20
92
30
0
11
92.714
21
132
31
0
0
LINE
8
PHOENIX
10
101.286
20
92
30
0
11
101.286
21
132
31
0
0
LINE
8
PHOENIX
10
109.857
20
92
30
0
11
109.857
21
132
31
0
0
LINE
8
PHOENIX
10
118.429
20
92
30
0
11
118.429
21
132
31
0
0
LINE
8
PHOENIX
10
139
20
92
30
0
11
187
21
92
31
0
0
LINE
8
PHOENIX
10
187
20
92
30
0
11
187
21
132
31
0
0
LINE
8
PHOENIX
10
187
20
132
30
0
11
139
21
132
31
0
0
LINE
8
PHOENIX
10
139
20
132
30
0
11
139
21
92
31
0
0
TEXT
8
PHOENIX-TEXT
10
163
20
114
30
0
40
2.822
1
P-C - 40 spaces
50
0
0
LINE
8
PHOENIX
10
148.6
20
92
30
0
11
148.6
21
132
31
0
0
LINE
8
PHOENIX
10
158.2
20
92
30
0
11
158.2
21
132
31
0
0
LINE
8
PHOENIX
10
167.8
20
92
30
0
11
167.8
21
132
31
0
0
LINE
8
PHOENIX
10
177.4
20
92
30
0
11
177.4
21
132
31
0
0
LINE
8
PHOENIX
10
211
20
180
30
0
11
267
21
180
31
0
0
LINE
8
PHOENIX
10
267
20
180
30
0
11
267
21
220
31
0
0
LINE
8
PHOENIX
10
267
20
220
30
0
11
211
21
220
31
0
0
LINE
8
PHOENIX
10
211
20
220
30
0
11
211
21
180
31
0
0
TEXT
8
PHOENIX-TEXT
10
239
20
202
30
0
40
2.822
1
P-D - 35 spaces
50
0
0
LINE
8
PHOENIX
10
222.2
20
180
30
0
11
222.2
21
220
31
0
0
LINE
8
PHOENIX
10
233.4
20
180
30
0
11
233.4
21
220
31
0
0
LINE
8
PHOENIX
10
244.6
20
180
30
0
11
244.6
21
220
31
0
0
LINE
8
PHOENIX
10
255.8
20
180
30
0
11
255.8
21
220
31
0
0
LINE
8
PHOENIX
10
211
20
92
30
0
11
267
21
92
31
0
0
LINE
8
PHOENIX
10
267
20
92
30
0
11
267
21
132
31
0
0
LINE
8
PHOENIX
10
267
20
132
30
0
11
211
21
132
31
0
0
LINE
8
PHOENIX
10
211
20
132
30
0
11
211
21
92
31
0
0
TEXT
8
PHOENIX-TEXT
10
239
20
114
30
0
40
2.822
1
P-E - 30 spaces
50
0
0
LINE
8
PHOENIX
10
225
20
92
30
0
11
225
21
132
31
0
0
LINE
8
PHOENIX
10
239
20
92
30
0
11
239
21
132
31
0
0
LINE
8
PHOENIX
10
253
20
92
30
0
11
253
21
132
31
0
0
TEXT
8
PHOENIX-TEXT
10
171
20
72
30
0
40
3.175
1
TOTAL PROJECT-LEADER-CONFIRMED CAPACITY: 225 SPACES - FIELD VERIFICATION PENDING
50
0
0
ENDSEC
0
EOF
