0
SECTION
2
HEADER
0
ENDSEC
0
SECTION
2
ENTITIES
0
LINE
8
PHOENIX
10
10
20
10
30
0
11
410
21
10
31
0
0
LINE
8
PHOENIX
10
410
20
10
30
0
11
410
21
287
31
0
0
LINE
8
PHOENIX
10
410
20
287
30
0
11
10
21
287
31
0
0
LINE
8
PHOENIX
10
10
20
287
30
0
11
10
21
10
31
0
0
LINE
8
PHOENIX
10
10
20
44
30
0
11
410
21
44
31
0
0
LINE
8
PHOENIX
10
280
20
10
30
0
11
280
21
44
31
0
0
TEXT
8
PHOENIX-TEXT
10
14
20
33
30
0
40
4.586
1
Uitbreiding moskee Haci Bayram
50
0
0
TEXT
8
PHOENIX-TEXT
10
14
20
25
30
0
40
3.175
1
Bikkersweg 88, Bunschoten
50
0
0
TEXT
8
PHOENIX-TEXT
10
14
20
17
30
0
40
3.528
1
CONCEPT - NOT FOR SUBMISSION OR EXECUTION
50
0
0
TEXT
8
PHOENIX-TEXT
10
284
20
35
30
0
40
3.881
1
SHEET A-101
50
0
0
TEXT
8
PHOENIX-TEXT
10
284
20
27
30
0
40
3.175
1
Ground-floor plan
50
0
0
TEXT
8
PHOENIX-TEXT
10
284
20
19
30
0
40
2.822
1
Scale 1:50 | ARCHITECTURE
50
0
0
TEXT
8
PHOENIX-TEXT
10
406
20
19
30
0
40
2.822
1
Issue 2026-07-27
50
0
0
TEXT
8
PHOENIX-TEXT
10
406
20
35
30
0
40
3.528
1
PROJECT PHOENIX
50
0
0
LINE
8
PHOENIX
10
90
20
65
30
0
11
230
21
65
31
0
0
LINE
8
PHOENIX
10
230
20
65
30
0
11
230
21
265
31
0
0
LINE
8
PHOENIX
10
230
20
265
30
0
11
90
21
265
31
0
0
LINE
8
PHOENIX
10
90
20
265
30
0
11
90
21
65
31
0
0
LINE
8
PHOENIX
10
90
20
189
30
0
11
230
21
189
31
0
0
LINE
8
PHOENIX
10
134
20
189
30
0
11
134
21
265
31
0
0
LINE
8
PHOENIX
10
170
20
189
30
0
11
170
21
265
31
0
0
LINE
8
PHOENIX
10
198
20
189
30
0
11
198
21
265
31
0
0
LINE
8
PHOENIX
10
106
20
65
30
0
11
130
21
65
31
0
0
LINE
8
PHOENIX
10
230
20
85
30
0
11
230
21
109
31
0
0
LINE
8
PHOENIX
10
110
20
65
30
0
11
128
21
65
31
0
0
LINE
8
PHOENIX
10
150
20
65
30
0
11
168
21
65
31
0
0
LINE
8
PHOENIX
10
190
20
65
30
0
11
208
21
65
31
0
0
LINE
8
PHOENIX
10
90
20
105
30
0
11
90
21
123
31
0
0
LINE
8
PHOENIX
10
90
20
145
30
0
11
90
21
163
31
0
0
TEXT
8
PHOENIX-TEXT
10
160
20
125
30
0
40
2.822
1
Prayer hall
50
0
0
TEXT
8
PHOENIX-TEXT
10
160
20
121
30
0
40
2.469
1
43.40 m2
50
0
0
TEXT
8
PHOENIX-TEXT
10
112
20
227
30
0
40
2.822
1
Entrance
50
0
0
TEXT
8
PHOENIX-TEXT
10
112
20
223
30
0
40
2.469
1
8.36 m2
50
0
0
TEXT
8
PHOENIX-TEXT
10
152
20
227
30
0
40
2.822
1
Stair
50
0
0
TEXT
8
PHOENIX-TEXT
10
152
20
223
30
0
40
2.469
1
6.84 m2
50
0
0
TEXT
8
PHOENIX-TEXT
10
184
20
227
30
0
40
2.822
1
WC
50
0
0
TEXT
8
PHOENIX-TEXT
10
184
20
223
30
0
40
2.469
1
5.32 m2
50
0
0
TEXT
8
PHOENIX-TEXT
10
214
20
227
30
0
40
2.822
1
Ablution
50
0
0
TEXT
8
PHOENIX-TEXT
10
214
20
223
30
0
40
2.469
1
6.08 m2
50
0
0
LINE
8
PHOENIX
10
138
20
93
30
0
11
182
21
93
31
0
0
LINE
8
PHOENIX
10
182
20
93
30
0
11
178.969
21
94.75
31
0
0
LINE
8
PHOENIX
10
182
20
93
30
0
11
178.969
21
91.25
31
0
0
TEXT
8
PHOENIX-TEXT
10
160
20
97
30
0
40
2.469
1
Qibla
50
0
0
LINE
8
PHOENIX
10
90
20
55
30
0
11
230
21
55
31
0
0
LINE
8
PHOENIX
10
90
20
53
30
0
11
90
21
57
31
0
0
LINE
8
PHOENIX
10
230
20
53
30
0
11
230
21
57
31
0
0
TEXT
8
PHOENIX-TEXT
10
160
20
58
30
0
40
2.469
1
7 000
50
0
0
LINE
8
PHOENIX
10
240
20
65
30
0
11
240
21
265
31
0
0
LINE
8
PHOENIX
10
242
20
65
30
0
11
238
21
65
31
0
0
LINE
8
PHOENIX
10
242
20
265
30
0
11
238
21
265
31
0
0
TEXT
8
PHOENIX-TEXT
10
237
20
165
30
0
40
2.469
1
10 000
50
0
0
TEXT
8
PHOENIX-TEXT
10
160
20
273
30
0
40
2.822
1
All dimensions in mm - verify existing connection on site
50
0
0
LINE
8
PHOENIX
10
20
20
105
30
0
11
75
21
105
31
0
0
LINE
8
PHOENIX
10
75
20
105
30
0
11
75
21
185
31
0
0
LINE
8
PHOENIX
10
75
20
185
30
0
11
20
21
185
31
0
0
LINE
8
PHOENIX
10
20
20
185
30
0
11
20
21
105
31
0
0
TEXT
8
PHOENIX-TEXT
10
47.5
20
150
30
0
40
3.175
1
Existing building connection reference
50
0
0
LINE
8
PHOENIX
10
75
20
145
30
0
11
90
21
145
31
0
0
LINE
8
PHOENIX
10
90
20
145
30
0
11
86.969
21
146.75
31
0
0
LINE
8
PHOENIX
10
90
20
145
30
0
11
86.969
21
143.25
31
0
0
TEXT
8
PHOENIX-TEXT
10
82.5
20
149
30
0
40
2.469
1
new connection
50
0
0
ENDSEC
0
EOF
