0
SECTION
2
HEADER
0
ENDSEC
0
SECTION
2
ENTITIES
0
LINE
8
PHOENIX
10
10
20
10
30
0
11
410
21
10
31
0
0
LINE
8
PHOENIX
10
410
20
10
30
0
11
410
21
287
31
0
0
LINE
8
PHOENIX
10
410
20
287
30
0
11
10
21
287
31
0
0
LINE
8
PHOENIX
10
10
20
287
30
0
11
10
21
10
31
0
0
LINE
8
PHOENIX
10
10
20
44
30
0
11
410
21
44
31
0
0
LINE
8
PHOENIX
10
280
20
10
30
0
11
280
21
44
31
0
0
TEXT
8
PHOENIX-TEXT
10
14
20
33
30
0
40
4.586
1
Uitbreiding moskee Haci Bayram
50
0
0
TEXT
8
PHOENIX-TEXT
10
14
20
25
30
0
40
3.175
1
Bikkersweg 88, Bunschoten
50
0
0
TEXT
8
PHOENIX-TEXT
10
14
20
17
30
0
40
3.528
1
CONCEPT - NOT FOR SUBMISSION OR EXECUTION
50
0
0
TEXT
8
PHOENIX-TEXT
10
284
20
35
30
0
40
3.881
1
SHEET A-401
50
0
0
TEXT
8
PHOENIX-TEXT
10
284
20
27
30
0
40
3.175
1
Roof plan and drainage concept
50
0
0
TEXT
8
PHOENIX-TEXT
10
284
20
19
30
0
40
2.822
1
Scale 1:50 | ARCHITECTURE / DRAINAGE
50
0
0
TEXT
8
PHOENIX-TEXT
10
406
20
19
30
0
40
2.822
1
Issue 2026-07-27
50
0
0
TEXT
8
PHOENIX-TEXT
10
406
20
35
30
0
40
3.528
1
PROJECT PHOENIX
50
0
0
LINE
8
PHOENIX
10
115
20
65
30
0
11
255
21
65
31
0
0
LINE
8
PHOENIX
10
255
20
65
30
0
11
255
21
265
31
0
0
LINE
8
PHOENIX
10
255
20
265
30
0
11
115
21
265
31
0
0
LINE
8
PHOENIX
10
115
20
265
30
0
11
115
21
65
31
0
0
LINE
8
PHOENIX
10
185
20
65
30
0
11
185
21
265
31
0
0
TEXT
8
PHOENIX-TEXT
10
125
20
69
30
0
40
2.469
1
RWP
50
0
0
TEXT
8
PHOENIX-TEXT
10
245
20
249
30
0
40
2.469
1
RWP
50
0
0
LINE
8
PHOENIX
10
185
20
165
30
0
11
125
21
75
31
0
0
LINE
8
PHOENIX
10
125
20
75
30
0
11
128.137
21
76.551
31
0
0
LINE
8
PHOENIX
10
125
20
75
30
0
11
125.225
21
78.493
31
0
0
TEXT
8
PHOENIX-TEXT
10
155
20
124
30
0
40
2.469
1
fall
50
0
0
LINE
8
PHOENIX
10
185
20
165
30
0
11
245
21
255
31
0
0
LINE
8
PHOENIX
10
245
20
255
30
0
11
241.863
21
253.449
31
0
0
LINE
8
PHOENIX
10
245
20
255
30
0
11
244.775
21
251.507
31
0
0
TEXT
8
PHOENIX-TEXT
10
215
20
214
30
0
40
2.469
1
fall
50
0
0
TEXT
8
PHOENIX-TEXT
10
185
20
273
30
0
40
3.175
1
Flat roof with two drainage zones and emergency overflow concept
50
0
0
LINE
8
PHOENIX
10
115
20
55
30
0
11
255
21
55
31
0
0
LINE
8
PHOENIX
10
115
20
53
30
0
11
115
21
57
31
0
0
LINE
8
PHOENIX
10
255
20
53
30
0
11
255
21
57
31
0
0
TEXT
8
PHOENIX-TEXT
10
185
20
58
30
0
40
2.469
1
7 000
50
0
0
LINE
8
PHOENIX
10
265
20
65
30
0
11
265
21
265
31
0
0
LINE
8
PHOENIX
10
267
20
65
30
0
11
263
21
65
31
0
0
LINE
8
PHOENIX
10
267
20
265
30
0
11
263
21
265
31
0
0
TEXT
8
PHOENIX-TEXT
10
262
20
165
30
0
40
2.469
1
10 000
50
0
0
ENDSEC
0
EOF
