0
SECTION
2
HEADER
0
ENDSEC
0
SECTION
2
ENTITIES
0
LINE
8
PHOENIX
10
12
20
12
30
0
11
408
21
12
31
0
0
LINE
8
PHOENIX
10
408
20
12
30
0
11
408
21
285
31
0
0
LINE
8
PHOENIX
10
408
20
285
30
0
11
12
21
285
31
0
0
LINE
8
PHOENIX
10
12
20
285
30
0
11
12
21
12
31
0
0
LINE
8
PHOENIX
10
12
20
12
30
0
11
408
21
12
31
0
0
LINE
8
PHOENIX
10
408
20
12
30
0
11
408
21
36
31
0
0
LINE
8
PHOENIX
10
408
20
36
30
0
11
12
21
36
31
0
0
LINE
8
PHOENIX
10
12
20
36
30
0
11
12
21
12
31
0
0
TEXT
8
PHOENIX-TEXT
10
18
20
27
30
0
40
3.175
1
PROJECT PHOENIX - MOSKEE H. BAYRAM
50
0
0
TEXT
8
PHOENIX-TEXT
10
18
20
19
30
0
40
2.822
1
Accessible entrance threshold detail
50
0
0
TEXT
8
PHOENIX-TEXT
10
300
20
27
30
0
40
2.822
1
SHEET TD-A-507
50
0
0
TEXT
8
PHOENIX-TEXT
10
300
20
19
30
0
40
2.822
1
SCALE 1:5 | REV C02
50
0
0
TEXT
8
PHOENIX-TEXT
10
402
20
19
30
0
40
2.117
1
TECHNICAL CONCEPT - NOT FOR PERMIT SUBMISSION OR EXECUTION
50
0
0
TEXT
8
PHOENIX-TEXT
10
210
20
279
30
0
40
4.939
1
ACCESSIBLE ENTRANCE THRESHOLD DETAIL
50
0
0
LINE
8
PHOENIX
10
50
20
60
30
0
11
180
21
60
31
0
0
LINE
8
PHOENIX
10
180
20
60
30
0
11
180
21
190
31
0
0
LINE
8
PHOENIX
10
180
20
190
30
0
11
50
21
190
31
0
0
LINE
8
PHOENIX
10
50
20
190
30
0
11
50
21
60
31
0
0
LINE
8
PHOENIX
10
90
20
85
30
0
11
140
21
85
31
0
0
LINE
8
PHOENIX
10
140
20
85
30
0
11
140
21
165
31
0
0
LINE
8
PHOENIX
10
140
20
165
30
0
11
90
21
165
31
0
0
LINE
8
PHOENIX
10
90
20
165
30
0
11
90
21
85
31
0
0
LINE
8
PHOENIX
10
90
20
85
30
0
11
70
21
65
31
0
0
LINE
8
PHOENIX
10
140
20
85
30
0
11
160
21
65
31
0
0
TEXT
8
PHOENIX-TEXT
10
115
20
175
30
0
40
2.822
1
Opening / frame / seal coordination
50
0
0
TEXT
8
PHOENIX-TEXT
10
230
20
170
30
0
40
3.175
1
Key notes
50
0
0
TEXT
8
PHOENIX-TEXT
10
230
20
155
30
0
40
2.469
1
1. Coordinated technical note
50
0
0
TEXT
8
PHOENIX-TEXT
10
230
20
143
30
0
40
2.469
1
2. Coordinated technical note
50
0
0
TEXT
8
PHOENIX-TEXT
10
230
20
131
30
0
40
2.469
1
3. Coordinated technical note
50
0
0
TEXT
8
PHOENIX-TEXT
10
230
20
119
30
0
40
2.469
1
4. Coordinated technical note
50
0
0
TEXT
8
PHOENIX-TEXT
10
230
20
107
30
0
40
2.469
1
5. Coordinated technical note
50
0
0
TEXT
8
PHOENIX-TEXT
10
230
20
95
30
0
40
2.469
1
6. Coordinated technical note
50
0
0
TEXT
8
PHOENIX-TEXT
10
250
20
215
30
0
40
3.528
1
TECHNICAL NOTES
50
0
0
TEXT
8
PHOENIX-TEXT
10
250
20
198
30
0
40
2.822
1
1. Dimensions derive from the central model.
50
0
0
TEXT
8
PHOENIX-TEXT
10
250
20
185
30
0
40
2.822
1
2. Material build-ups are concept selections.
50
0
0
TEXT
8
PHOENIX-TEXT
10
250
20
172
30
0
40
2.822
1
3. Fire, structure, MEP and building physics require professional evidence.
50
0
0
TEXT
8
PHOENIX-TEXT
10
250
20
159
30
0
40
2.822
1
4. Do not use for permit submission or construction.
50
0
0
ENDSEC
0
EOF
