0
SECTION
2
HEADER
0
ENDSEC
0
SECTION
2
ENTITIES
0
LINE
8
PHOENIX
10
12
20
12
30
0
11
408
21
12
31
0
0
LINE
8
PHOENIX
10
408
20
12
30
0
11
408
21
285
31
0
0
LINE
8
PHOENIX
10
408
20
285
30
0
11
12
21
285
31
0
0
LINE
8
PHOENIX
10
12
20
285
30
0
11
12
21
12
31
0
0
LINE
8
PHOENIX
10
12
20
12
30
0
11
408
21
12
31
0
0
LINE
8
PHOENIX
10
408
20
12
30
0
11
408
21
36
31
0
0
LINE
8
PHOENIX
10
408
20
36
30
0
11
12
21
36
31
0
0
LINE
8
PHOENIX
10
12
20
36
30
0
11
12
21
12
31
0
0
TEXT
8
PHOENIX-TEXT
10
18
20
27
30
0
40
3.175
1
PROJECT PHOENIX - MOSKEE H. BAYRAM
50
0
0
TEXT
8
PHOENIX-TEXT
10
18
20
19
30
0
40
2.822
1
Structural openings and sleeves coordination
50
0
0
TEXT
8
PHOENIX-TEXT
10
300
20
27
30
0
40
2.822
1
SHEET TD-C-702
50
0
0
TEXT
8
PHOENIX-TEXT
10
300
20
19
30
0
40
2.822
1
SCALE 1:50 | REV C02
50
0
0
TEXT
8
PHOENIX-TEXT
10
402
20
19
30
0
40
2.117
1
TECHNICAL CONCEPT - NOT FOR PERMIT SUBMISSION OR EXECUTION
50
0
0
TEXT
8
PHOENIX-TEXT
10
210
20
279
30
0
40
4.939
1
STRUCTURAL OPENINGS AND SLEEVES COORDINATION
50
0
0
LINE
8
PHOENIX
10
50
20
60
30
0
11
220
21
60
31
0
0
LINE
8
PHOENIX
10
220
20
60
30
0
11
220
21
180
31
0
0
LINE
8
PHOENIX
10
220
20
180
30
0
11
50
21
180
31
0
0
LINE
8
PHOENIX
10
50
20
180
30
0
11
50
21
60
31
0
0
LINE
8
PHOENIX
10
92.5
20
60
30
0
11
92.5
21
180
31
0
0
LINE
8
PHOENIX
10
135
20
60
30
0
11
135
21
180
31
0
0
LINE
8
PHOENIX
10
177.5
20
60
30
0
11
177.5
21
180
31
0
0
LINE
8
PHOENIX
10
50
20
100
30
0
11
220
21
100
31
0
0
LINE
8
PHOENIX
10
50
20
140
30
0
11
220
21
140
31
0
0
LINE
8
PHOENIX
10
92.5
20
100
30
0
11
177.5
21
100
31
0
0
LINE
8
PHOENIX
10
177.5
20
100
30
0
11
177.5
21
140
31
0
0
LINE
8
PHOENIX
10
177.5
20
140
30
0
11
92.5
21
140
31
0
0
LINE
8
PHOENIX
10
92.5
20
140
30
0
11
92.5
21
100
31
0
0
LINE
8
PHOENIX
10
135
20
120
30
0
11
200
21
160
31
0
0
LINE
8
PHOENIX
10
200
20
160
30
0
11
196.501
21
159.902
31
0
0
LINE
8
PHOENIX
10
200
20
160
30
0
11
198.336
21
156.921
31
0
0
TEXT
8
PHOENIX-TEXT
10
167.5
20
144
30
0
40
2.469
1
service route
50
0
0
TEXT
8
PHOENIX-TEXT
10
135
20
190
30
0
40
3.175
1
Coordinated discipline zones
50
0
0
TEXT
8
PHOENIX-TEXT
10
250
20
215
30
0
40
3.528
1
TECHNICAL NOTES
50
0
0
TEXT
8
PHOENIX-TEXT
10
250
20
198
30
0
40
2.822
1
1. Dimensions derive from the central model.
50
0
0
TEXT
8
PHOENIX-TEXT
10
250
20
185
30
0
40
2.822
1
2. Material build-ups are concept selections.
50
0
0
TEXT
8
PHOENIX-TEXT
10
250
20
172
30
0
40
2.822
1
3. Fire, structure, MEP and building physics require professional evidence.
50
0
0
TEXT
8
PHOENIX-TEXT
10
250
20
159
30
0
40
2.822
1
4. Do not use for permit submission or construction.
50
0
0
ENDSEC
0
EOF
