0
SECTION
2
HEADER
0
ENDSEC
0
SECTION
2
ENTITIES
0
LINE
8
PHOENIX
10
12
20
12
30
0
11
408
21
12
31
0
0
LINE
8
PHOENIX
10
408
20
12
30
0
11
408
21
285
31
0
0
LINE
8
PHOENIX
10
408
20
285
30
0
11
12
21
285
31
0
0
LINE
8
PHOENIX
10
12
20
285
30
0
11
12
21
12
31
0
0
LINE
8
PHOENIX
10
12
20
12
30
0
11
408
21
12
31
0
0
LINE
8
PHOENIX
10
408
20
12
30
0
11
408
21
36
31
0
0
LINE
8
PHOENIX
10
408
20
36
30
0
11
12
21
36
31
0
0
LINE
8
PHOENIX
10
12
20
36
30
0
11
12
21
12
31
0
0
TEXT
8
PHOENIX-TEXT
10
18
20
27
30
0
40
3.175
1
PROJECT PHOENIX - MOSKEE H. BAYRAM
50
0
0
TEXT
8
PHOENIX-TEXT
10
18
20
19
30
0
40
2.822
1
Roof drainage and sanitary routing
50
0
0
TEXT
8
PHOENIX-TEXT
10
300
20
27
30
0
40
2.822
1
SHEET TD-M-602
50
0
0
TEXT
8
PHOENIX-TEXT
10
300
20
19
30
0
40
2.822
1
SCALE 1:50 | REV C02
50
0
0
TEXT
8
PHOENIX-TEXT
10
402
20
19
30
0
40
2.117
1
TECHNICAL CONCEPT - NOT FOR PERMIT SUBMISSION OR EXECUTION
50
0
0
TEXT
8
PHOENIX-TEXT
10
210
20
279
30
0
40
4.939
1
ROOF DRAINAGE AND SANITARY ROUTING
50
0
0
LINE
8
PHOENIX
10
50
20
60
30
0
11
200
21
60
31
0
0
LINE
8
PHOENIX
10
200
20
60
30
0
11
200
21
76
31
0
0
LINE
8
PHOENIX
10
200
20
76
30
0
11
50
21
76
31
0
0
LINE
8
PHOENIX
10
50
20
76
30
0
11
50
21
60
31
0
0
LINE
8
PHOENIX
10
50
20
76
30
0
11
200
21
76
31
0
0
LINE
8
PHOENIX
10
200
20
76
30
0
11
200
21
86
31
0
0
LINE
8
PHOENIX
10
200
20
86
30
0
11
50
21
86
31
0
0
LINE
8
PHOENIX
10
50
20
86
30
0
11
50
21
76
31
0
0
LINE
8
PHOENIX
10
50
20
86
30
0
11
200
21
86
31
0
0
LINE
8
PHOENIX
10
200
20
86
30
0
11
200
21
126
31
0
0
LINE
8
PHOENIX
10
200
20
126
30
0
11
50
21
126
31
0
0
LINE
8
PHOENIX
10
50
20
126
30
0
11
50
21
86
31
0
0
LINE
8
PHOENIX
10
50
20
86
30
0
11
50
21
126
31
0
0
LINE
8
PHOENIX
10
80
20
86
30
0
11
80
21
126
31
0
0
LINE
8
PHOENIX
10
110
20
86
30
0
11
110
21
126
31
0
0
LINE
8
PHOENIX
10
140
20
86
30
0
11
140
21
126
31
0
0
LINE
8
PHOENIX
10
170
20
86
30
0
11
170
21
126
31
0
0
TEXT
8
PHOENIX-TEXT
10
125
20
138
30
0
40
3.175
1
Layered component build-up
50
0
0
LINE
8
PHOENIX
10
50
20
52
30
0
11
200
21
52
31
0
0
LINE
8
PHOENIX
10
50
20
50
30
0
11
50
21
54
31
0
0
LINE
8
PHOENIX
10
200
20
50
30
0
11
200
21
54
31
0
0
TEXT
8
PHOENIX-TEXT
10
125
20
55
30
0
40
2.469
1
DETAIL WIDTH
50
0
0
TEXT
8
PHOENIX-TEXT
10
250
20
215
30
0
40
3.528
1
TECHNICAL NOTES
50
0
0
TEXT
8
PHOENIX-TEXT
10
250
20
198
30
0
40
2.822
1
1. Dimensions derive from the central model.
50
0
0
TEXT
8
PHOENIX-TEXT
10
250
20
185
30
0
40
2.822
1
2. Material build-ups are concept selections.
50
0
0
TEXT
8
PHOENIX-TEXT
10
250
20
172
30
0
40
2.822
1
3. Fire, structure, MEP and building physics require professional evidence.
50
0
0
TEXT
8
PHOENIX-TEXT
10
250
20
159
30
0
40
2.822
1
4. Do not use for permit submission or construction.
50
0
0
ENDSEC
0
EOF
