0
SECTION
2
HEADER
0
ENDSEC
0
SECTION
2
ENTITIES
0
LINE
8
PHOENIX
10
12
20
12
30
0
11
408
21
12
31
0
0
LINE
8
PHOENIX
10
408
20
12
30
0
11
408
21
285
31
0
0
LINE
8
PHOENIX
10
408
20
285
30
0
11
12
21
285
31
0
0
LINE
8
PHOENIX
10
12
20
285
30
0
11
12
21
12
31
0
0
LINE
8
PHOENIX
10
12
20
12
30
0
11
408
21
12
31
0
0
LINE
8
PHOENIX
10
408
20
12
30
0
11
408
21
36
31
0
0
LINE
8
PHOENIX
10
408
20
36
30
0
11
12
21
36
31
0
0
LINE
8
PHOENIX
10
12
20
36
30
0
11
12
21
12
31
0
0
TEXT
8
PHOENIX-TEXT
10
18
20
27
30
0
40
3.175
1
PROJECT PHOENIX - MOSKEE H. BAYRAM
50
0
0
TEXT
8
PHOENIX-TEXT
10
18
20
19
30
0
40
2.822
1
MEP coordination zones and shafts
50
0
0
TEXT
8
PHOENIX-TEXT
10
300
20
27
30
0
40
2.822
1
SHEET TD-M-601
50
0
0
TEXT
8
PHOENIX-TEXT
10
300
20
19
30
0
40
2.822
1
SCALE 1:50 | REV C02
50
0
0
TEXT
8
PHOENIX-TEXT
10
402
20
19
30
0
40
2.117
1
TECHNICAL CONCEPT - NOT FOR PERMIT SUBMISSION OR EXECUTION
50
0
0
TEXT
8
PHOENIX-TEXT
10
210
20
279
30
0
40
4.939
1
MEP COORDINATION ZONES AND SHAFTS
50
0
0
LINE
8
PHOENIX
10
50
20
60
30
0
11
160
21
60
31
0
0
LINE
8
PHOENIX
10
160
20
60
30
0
11
160
21
85
31
0
0
LINE
8
PHOENIX
10
160
20
85
30
0
11
50
21
85
31
0
0
LINE
8
PHOENIX
10
50
20
85
30
0
11
50
21
60
31
0
0
LINE
8
PHOENIX
10
75
20
85
30
0
11
135
21
85
31
0
0
LINE
8
PHOENIX
10
135
20
85
30
0
11
135
21
185
31
0
0
LINE
8
PHOENIX
10
135
20
185
30
0
11
75
21
185
31
0
0
LINE
8
PHOENIX
10
75
20
185
30
0
11
75
21
85
31
0
0
LINE
8
PHOENIX
10
81
20
95
30
0
11
129
21
95
31
0
0
LINE
8
PHOENIX
10
129
20
95
30
0
11
129
21
185
31
0
0
LINE
8
PHOENIX
10
129
20
185
30
0
11
81
21
185
31
0
0
LINE
8
PHOENIX
10
81
20
185
30
0
11
81
21
95
31
0
0
LINE
8
PHOENIX
10
135
20
85
30
0
11
200
21
85
31
0
0
TEXT
8
PHOENIX-TEXT
10
210
20
82
30
0
40
2.822
1
Existing / new interface
50
0
0
LINE
8
PHOENIX
10
50
20
52
30
0
11
160
21
52
31
0
0
LINE
8
PHOENIX
10
50
20
50
30
0
11
50
21
54
31
0
0
LINE
8
PHOENIX
10
160
20
50
30
0
11
160
21
54
31
0
0
TEXT
8
PHOENIX-TEXT
10
105
20
55
30
0
40
2.469
1
1 500
50
0
0
LINE
8
PHOENIX
10
75
20
93
30
0
11
135
21
93
31
0
0
LINE
8
PHOENIX
10
75
20
91
30
0
11
75
21
95
31
0
0
LINE
8
PHOENIX
10
135
20
91
30
0
11
135
21
95
31
0
0
TEXT
8
PHOENIX-TEXT
10
105
20
96
30
0
40
2.469
1
350
50
0
0
TEXT
8
PHOENIX-TEXT
10
250
20
215
30
0
40
3.528
1
TECHNICAL NOTES
50
0
0
TEXT
8
PHOENIX-TEXT
10
250
20
198
30
0
40
2.822
1
1. Dimensions derive from the central model.
50
0
0
TEXT
8
PHOENIX-TEXT
10
250
20
185
30
0
40
2.822
1
2. Material build-ups are concept selections.
50
0
0
TEXT
8
PHOENIX-TEXT
10
250
20
172
30
0
40
2.822
1
3. Fire, structure, MEP and building physics require professional evidence.
50
0
0
TEXT
8
PHOENIX-TEXT
10
250
20
159
30
0
40
2.822
1
4. Do not use for permit submission or construction.
50
0
0
ENDSEC
0
EOF
