0
SECTION
2
ENTITIES
0
LINE
8
begane grond
10
0.0
20
0.0
30
0
11
3.0
21
0.0
31
0
0
LINE
8
begane grond
10
3.0
20
0.0
30
0
11
3.0
21
3.5
31
0
0
LINE
8
begane grond
10
3.0
20
3.5
30
0
11
0.0
21
3.5
31
0
0
LINE
8
begane grond
10
0.0
20
3.5
30
0
11
0.0
21
0.0
31
0
0
LINE
8
begane grond
10
3.0
20
0.0
30
0
11
13.0
21
0.0
31
0
0
LINE
8
begane grond
10
13.0
20
0.0
30
0
11
13.0
21
12.0
31
0
0
LINE
8
begane grond
10
13.0
20
12.0
30
0
11
3.0
21
12.0
31
0
0
LINE
8
begane grond
10
3.0
20
12.0
30
0
11
3.0
21
0.0
31
0
0
LINE
8
begane grond
10
13.0
20
0.0
30
0
11
19.0
21
0.0
31
0
0
LINE
8
begane grond
10
19.0
20
0.0
30
0
11
19.0
21
7.0
31
0
0
LINE
8
begane grond
10
19.0
20
7.0
30
0
11
13.0
21
7.0
31
0
0
LINE
8
begane grond
10
13.0
20
7.0
30
0
11
13.0
21
0.0
31
0
0
LINE
8
begane grond
10
19.0
20
0.0
30
0
11
22.0
21
0.0
31
0
0
LINE
8
begane grond
10
22.0
20
0.0
30
0
11
22.0
21
4.0
31
0
0
LINE
8
begane grond
10
22.0
20
4.0
30
0
11
19.0
21
4.0
31
0
0
LINE
8
begane grond
10
19.0
20
4.0
30
0
11
19.0
21
0.0
31
0
0
LINE
8
verdieping
10
0.0
20
0.0
30
0
11
8.0
21
0.0
31
0
0
LINE
8
verdieping
10
8.0
20
0.0
30
0
11
8.0
21
10.0
31
0
0
LINE
8
verdieping
10
8.0
20
10.0
30
0
11
0.0
21
10.0
31
0
0
LINE
8
verdieping
10
0.0
20
10.0
30
0
11
0.0
21
0.0
31
0
0
LINE
8
verdieping
10
8.0
20
0.0
30
0
11
13.0
21
0.0
31
0
0
LINE
8
verdieping
10
13.0
20
0.0
30
0
11
13.0
21
6.0
31
0
0
LINE
8
verdieping
10
13.0
20
6.0
30
0
11
8.0
21
6.0
31
0
0
LINE
8
verdieping
10
8.0
20
6.0
30
0
11
8.0
21
0.0
31
0
0
ENDSEC
0
EOF