0
SECTION
2
HEADER
0
ENDSEC
0
SECTION
2
ENTITIES
0
LINE
8
PHOENIX
10
10
20
10
30
0
11
410
21
10
31
0
0
LINE
8
PHOENIX
10
410
20
10
30
0
11
410
21
287
31
0
0
LINE
8
PHOENIX
10
410
20
287
30
0
11
10
21
287
31
0
0
LINE
8
PHOENIX
10
10
20
287
30
0
11
10
21
10
31
0
0
LINE
8
PHOENIX
10
10
20
44
30
0
11
410
21
44
31
0
0
LINE
8
PHOENIX
10
280
20
10
30
0
11
280
21
44
31
0
0
TEXT
8
PHOENIX-TEXT
10
14
20
33
30
0
40
4.586
1
Uitbreiding moskee Haci Bayram
50
0
0
TEXT
8
PHOENIX-TEXT
10
14
20
25
30
0
40
3.175
1
Bikkersweg 88, Bunschoten
50
0
0
TEXT
8
PHOENIX-TEXT
10
14
20
17
30
0
40
3.528
1
CONCEPT - NOT FOR SUBMISSION OR EXECUTION
50
0
0
TEXT
8
PHOENIX-TEXT
10
284
20
35
30
0
40
3.881
1
SHEET S-101
50
0
0
TEXT
8
PHOENIX-TEXT
10
284
20
27
30
0
40
3.175
1
Foundation concept
50
0
0
TEXT
8
PHOENIX-TEXT
10
284
20
19
30
0
40
2.822
1
Scale 1:50 | STRUCTURE / GEOTECHNICS
50
0
0
TEXT
8
PHOENIX-TEXT
10
406
20
19
30
0
40
2.822
1
Issue 2026-07-27
50
0
0
TEXT
8
PHOENIX-TEXT
10
406
20
35
30
0
40
3.528
1
PROJECT PHOENIX
50
0
0
LINE
8
PHOENIX
10
115
20
65
30
0
11
255
21
65
31
0
0
LINE
8
PHOENIX
10
255
20
65
30
0
11
255
21
265
31
0
0
LINE
8
PHOENIX
10
255
20
265
30
0
11
115
21
265
31
0
0
LINE
8
PHOENIX
10
115
20
265
30
0
11
115
21
65
31
0
0
LINE
8
PHOENIX
10
107.5
20
57.5
30
0
11
262.5
21
57.5
31
0
0
LINE
8
PHOENIX
10
262.5
20
57.5
30
0
11
262.5
21
272.5
31
0
0
LINE
8
PHOENIX
10
262.5
20
272.5
30
0
11
107.5
21
272.5
31
0
0
LINE
8
PHOENIX
10
107.5
20
272.5
30
0
11
107.5
21
57.5
31
0
0
LINE
8
PHOENIX
10
122.5
20
72.5
30
0
11
247.5
21
72.5
31
0
0
LINE
8
PHOENIX
10
247.5
20
72.5
30
0
11
247.5
21
257.5
31
0
0
LINE
8
PHOENIX
10
247.5
20
257.5
30
0
11
122.5
21
257.5
31
0
0
LINE
8
PHOENIX
10
122.5
20
257.5
30
0
11
122.5
21
72.5
31
0
0
LINE
8
PHOENIX
10
185
20
65
30
0
11
185
21
265
31
0
0
TEXT
8
PHOENIX-TEXT
10
185
20
165
30
0
40
2.822
1
Internal foundation beam 500 x 600 mm
50
0
0
TEXT
8
PHOENIX-TEXT
10
185
20
273
30
0
40
3.175
1
Perimeter strip concept: 1500 x 400 mm - verification required
50
0
0
LINE
8
PHOENIX
10
315
20
125
30
0
11
380
21
125
31
0
0
LINE
8
PHOENIX
10
380
20
125
30
0
11
380
21
200
31
0
0
LINE
8
PHOENIX
10
380
20
200
30
0
11
315
21
200
31
0
0
LINE
8
PHOENIX
10
315
20
200
30
0
11
315
21
125
31
0
0
LINE
8
PHOENIX
10
323
20
140
30
0
11
372
21
140
31
0
0
LINE
8
PHOENIX
10
372
20
140
30
0
11
372
21
158
31
0
0
LINE
8
PHOENIX
10
372
20
158
30
0
11
323
21
158
31
0
0
LINE
8
PHOENIX
10
323
20
158
30
0
11
323
21
140
31
0
0
LINE
8
PHOENIX
10
339
20
140
30
0
11
356
21
140
31
0
0
LINE
8
PHOENIX
10
356
20
140
30
0
11
356
21
178
31
0
0
LINE
8
PHOENIX
10
356
20
178
30
0
11
339
21
178
31
0
0
LINE
8
PHOENIX
10
339
20
178
30
0
11
339
21
140
31
0
0
TEXT
8
PHOENIX-TEXT
10
347.5
20
185
30
0
40
2.822
1
CONCEPT DETAIL
50
0
0
TEXT
8
PHOENIX-TEXT
10
347.5
20
133
30
0
40
2.469
1
Groundwater assumption P=-0.50 m
50
0
0
ENDSEC
0
EOF
