<svg xmlns="http://www.w3.org/2000/svg" width="900" height="600" viewBox="0 0 900 600"><rect width="900" height="600" fill="white"/><text x="35" y="35" font-family="Arial" font-size="24" font-weight="bold">Terrein, perceel en parkeeromgeving</text><text x="35" y="58" font-family="Arial" font-size="13">225 projectleider-bevestigde plaatsen — veldverificatie pending</text><polygon points="330.00,280.00 402.00,280.00 402.00,196.00 330.00,196.00" style="fill:#dbeafe;stroke:#1d4ed8;stroke-width:2"/><polygon points="402.00,268.00 444.00,268.00 444.00,208.00 402.00,208.00" style="fill:#dbeafe;stroke:#1d4ed8;stroke-width:2"/><rect x="120.00" y="5.20" width="225.60" height="154.80" fill="#fef3c7" stroke="#b45309" stroke-width="1.5"/><text x="232.80" y="82.60" text-anchor="middle" font-family="Arial" font-size="11">P-A: 70 pp</text><rect x="60.00" y="185.20" width="160.80" height="154.80" fill="#fef3c7" stroke="#b45309" stroke-width="1.5"/><text x="140.40" y="262.60" text-anchor="middle" font-family="Arial" font-size="11">P-B: 50 pp</text><rect x="210.00" y="366.40" width="160.80" height="123.60" fill="#fef3c7" stroke="#b45309" stroke-width="1.5"/><text x="290.40" y="428.20" text-anchor="middle" font-family="Arial" font-size="11">P-C: 40 pp</text><rect x="480.00" y="155.20" width="112.20" height="154.80" fill="#fef3c7" stroke="#b45309" stroke-width="1.5"/><text x="536.10" y="232.60" text-anchor="middle" font-family="Arial" font-size="11">P-D: 35 pp</text><rect x="480.00" y="67.60" width="160.80" height="92.40" fill="#fef3c7" stroke="#b45309" stroke-width="1.5"/><text x="560.40" y="113.80" text-anchor="middle" font-family="Arial" font-size="11">P-E: 30 pp</text><polygon points="294.00,316.00 480.00,316.00 480.00,154.00 294.00,154.00" style="fill:#ecfccb;stroke:#4d7c0f;stroke-width:2"/><polygon points="30.00,520.00 630.00,520.00 630.00,40.00 30.00,40.00" style="fill:#f8fafc;stroke:#64748b;stroke-width:2"/></svg>