0
SECTION
2
HEADER
0
ENDSEC
0
SECTION
2
ENTITIES
0
LINE
8
BUILDING
10
0.0
20
0.0
30
0
11
12.0
21
0.0
31
0
0
LINE
8
BUILDING
10
12.0
20
0.0
30
0
11
12.0
21
14.0
31
0
0
LINE
8
BUILDING
10
12.0
20
14.0
30
0
11
0.0
21
14.0
31
0
0
LINE
8
BUILDING
10
0.0
20
14.0
30
0
11
0.0
21
0.0
31
0
0
LINE
8
BUILDING
10
12.0
20
2.0
30
0
11
19.0
21
2.0
31
0
0
LINE
8
BUILDING
10
19.0
20
2.0
30
0
11
19.0
21
12.0
31
0
0
LINE
8
BUILDING
10
19.0
20
12.0
30
0
11
12.0
21
12.0
31
0
0
LINE
8
BUILDING
10
12.0
20
12.0
30
0
11
12.0
21
2.0
31
0
0
LINE
8
PARCEL
10
-6.0
20
-6.0
30
0
11
25.0
21
-6.0
31
0
0
LINE
8
PARCEL
10
25.0
20
-6.0
30
0
11
25.0
21
21.0
31
0
0
LINE
8
PARCEL
10
25.0
20
21.0
30
0
11
-6.0
21
21.0
31
0
0
LINE
8
PARCEL
10
-6.0
20
21.0
30
0
11
-6.0
21
-6.0
31
0
0
LINE
8
SITE
10
-50.0
20
-40.0
30
0
11
50.0
21
-40.0
31
0
0
LINE
8
SITE
10
50.0
20
-40.0
30
0
11
50.0
21
40.0
31
0
0
LINE
8
SITE
10
50.0
20
40.0
30
0
11
-50.0
21
40.0
31
0
0
LINE
8
SITE
10
-50.0
20
40.0
30
0
11
-50.0
21
-40.0
31
0
0
LINE
8
WALLS
10
12
20
12
30
0
11
12
21
14
31
0
0
LINE
8
WALLS
10
12
20
0
30
0
11
12
21
2
31
0
0
LINE
8
WALLS
10
4
20
0.2
30
0
11
4
21
13.8
31
0
0
LINE
8
WALLS
10
4
20
7
30
0
11
11.8
21
7
31
0
0
LINE
8
WALLS
10
8
20
0.2
30
0
11
8
21
7
31
0
0
LINE
8
WALLS
10
0
20
14
30
0
11
12
21
14
31
0
0
LINE
8
WALLS
10
0
20
0
30
0
11
12
21
0
31
0
0
LINE
8
WALLS
10
0
20
0
30
0
11
0
21
14
31
0
0
LINE
8
WALLS
10
19
20
2
30
0
11
19
21
12
31
0
0
LINE
8
WALLS
10
15.5
20
2.2
30
0
11
15.5
21
11.8
31
0
0
LINE
8
WALLS
10
12.2
20
7
30
0
11
18.8
21
7
31
0
0
LINE
8
WALLS
10
12
20
12
30
0
11
19
21
12
31
0
0
LINE
8
WALLS
10
12
20
2
30
0
11
19
21
2
31
0
0
ENDSEC
0
EOF
