0
SECTION
2
HEADER
9
$ACADVER
1
AC1015
0
ENDSEC
0
SECTION
2
ENTITIES
0
LINE
8
CONCRETE
10
0
20
0
30
0
11
5000.0
21
0
31
0
0
LINE
8
CONCRETE
10
0
20
500.0
30
0
11
5000.0
21
500.0
31
0
0
LINE
8
CONCRETE
10
0
20
0
30
0
11
0
21
500.0
31
0
0
LINE
8
CONCRETE
10
5000.0
20
0
30
0
11
5000.0
21
500.0
31
0
0
LINE
8
REBAR_BOTTOM
10
150
20
60
30
0
11
4850.0
21
60
31
0
0
LINE
8
REBAR_TOP
10
150
20
440.0
30
0
11
4850.0
21
440.0
31
0
0
LINE
8
STIRRUPS
10
150.0
20
40
30
0
11
150.0
21
460.0
31
0
0
LINE
8
STIRRUPS
10
325.0
20
40
30
0
11
325.0
21
460.0
31
0
0
LINE
8
STIRRUPS
10
500.0
20
40
30
0
11
500.0
21
460.0
31
0
0
LINE
8
STIRRUPS
10
675.0
20
40
30
0
11
675.0
21
460.0
31
0
0
LINE
8
STIRRUPS
10
850.0
20
40
30
0
11
850.0
21
460.0
31
0
0
LINE
8
STIRRUPS
10
1025.0
20
40
30
0
11
1025.0
21
460.0
31
0
0
LINE
8
STIRRUPS
10
1200.0
20
40
30
0
11
1200.0
21
460.0
31
0
0
LINE
8
STIRRUPS
10
1375.0
20
40
30
0
11
1375.0
21
460.0
31
0
0
LINE
8
STIRRUPS
10
1550.0
20
40
30
0
11
1550.0
21
460.0
31
0
0
LINE
8
STIRRUPS
10
1725.0
20
40
30
0
11
1725.0
21
460.0
31
0
0
LINE
8
STIRRUPS
10
1900.0
20
40
30
0
11
1900.0
21
460.0
31
0
0
LINE
8
STIRRUPS
10
2075.0
20
40
30
0
11
2075.0
21
460.0
31
0
0
LINE
8
STIRRUPS
10
2250.0
20
40
30
0
11
2250.0
21
460.0
31
0
0
LINE
8
STIRRUPS
10
2425.0
20
40
30
0
11
2425.0
21
460.0
31
0
0
LINE
8
STIRRUPS
10
2600.0
20
40
30
0
11
2600.0
21
460.0
31
0
0
LINE
8
STIRRUPS
10
2775.0
20
40
30
0
11
2775.0
21
460.0
31
0
0
LINE
8
STIRRUPS
10
2950.0
20
40
30
0
11
2950.0
21
460.0
31
0
0
LINE
8
STIRRUPS
10
3125.0
20
40
30
0
11
3125.0
21
460.0
31
0
0
LINE
8
STIRRUPS
10
3300.0
20
40
30
0
11
3300.0
21
460.0
31
0
0
LINE
8
STIRRUPS
10
3475.0
20
40
30
0
11
3475.0
21
460.0
31
0
0
LINE
8
STIRRUPS
10
3650.0
20
40
30
0
11
3650.0
21
460.0
31
0
0
LINE
8
STIRRUPS
10
3825.0
20
40
30
0
11
3825.0
21
460.0
31
0
0
LINE
8
STIRRUPS
10
4000.0
20
40
30
0
11
4000.0
21
460.0
31
0
0
LINE
8
STIRRUPS
10
4175.0
20
40
30
0
11
4175.0
21
460.0
31
0
0
LINE
8
STIRRUPS
10
4350.0
20
40
30
0
11
4350.0
21
460.0
31
0
0
LINE
8
STIRRUPS
10
4525.0
20
40
30
0
11
4525.0
21
460.0
31
0
0
LINE
8
STIRRUPS
10
4700.0
20
40
30
0
11
4700.0
21
460.0
31
0
0
ENDSEC
0
EOF
