0
SECTION
2
HEADER
9
$ACADVER
1
AC1015
0
ENDSEC
0
SECTION
2
ENTITIES
0
LINE
8
CONCRETE
10
0
20
0
30
0
11
5000.0
21
0
31
0
0
LINE
8
CONCRETE
10
0
20
500.0
30
0
11
5000.0
21
500.0
31
0
0
LINE
8
CONCRETE
10
0
20
0
30
0
11
0
21
500.0
31
0
0
LINE
8
CONCRETE
10
5000.0
20
0
30
0
11
5000.0
21
500.0
31
0
0
LINE
8
REBAR_BOTTOM
10
150
20
60
30
0
11
4850.0
21
60
31
0
0
LINE
8
REBAR_TOP
10
150
20
440.0
30
0
11
4850.0
21
440.0
31
0
0
LINE
8
STIRRUPS
10
150.0
20
40
30
0
11
150.0
21
460.0
31
0
0
LINE
8
STIRRUPS
10
350.0
20
40
30
0
11
350.0
21
460.0
31
0
0
LINE
8
STIRRUPS
10
550.0
20
40
30
0
11
550.0
21
460.0
31
0
0
LINE
8
STIRRUPS
10
750.0
20
40
30
0
11
750.0
21
460.0
31
0
0
LINE
8
STIRRUPS
10
950.0
20
40
30
0
11
950.0
21
460.0
31
0
0
LINE
8
STIRRUPS
10
1150.0
20
40
30
0
11
1150.0
21
460.0
31
0
0
LINE
8
STIRRUPS
10
1350.0
20
40
30
0
11
1350.0
21
460.0
31
0
0
LINE
8
STIRRUPS
10
1550.0
20
40
30
0
11
1550.0
21
460.0
31
0
0
LINE
8
STIRRUPS
10
1750.0
20
40
30
0
11
1750.0
21
460.0
31
0
0
LINE
8
STIRRUPS
10
1950.0
20
40
30
0
11
1950.0
21
460.0
31
0
0
LINE
8
STIRRUPS
10
2150.0
20
40
30
0
11
2150.0
21
460.0
31
0
0
LINE
8
STIRRUPS
10
2350.0
20
40
30
0
11
2350.0
21
460.0
31
0
0
LINE
8
STIRRUPS
10
2550.0
20
40
30
0
11
2550.0
21
460.0
31
0
0
LINE
8
STIRRUPS
10
2750.0
20
40
30
0
11
2750.0
21
460.0
31
0
0
LINE
8
STIRRUPS
10
2950.0
20
40
30
0
11
2950.0
21
460.0
31
0
0
LINE
8
STIRRUPS
10
3150.0
20
40
30
0
11
3150.0
21
460.0
31
0
0
LINE
8
STIRRUPS
10
3350.0
20
40
30
0
11
3350.0
21
460.0
31
0
0
LINE
8
STIRRUPS
10
3550.0
20
40
30
0
11
3550.0
21
460.0
31
0
0
LINE
8
STIRRUPS
10
3750.0
20
40
30
0
11
3750.0
21
460.0
31
0
0
LINE
8
STIRRUPS
10
3950.0
20
40
30
0
11
3950.0
21
460.0
31
0
0
LINE
8
STIRRUPS
10
4150.0
20
40
30
0
11
4150.0
21
460.0
31
0
0
LINE
8
STIRRUPS
10
4350.0
20
40
30
0
11
4350.0
21
460.0
31
0
0
LINE
8
STIRRUPS
10
4550.0
20
40
30
0
11
4550.0
21
460.0
31
0
0
LINE
8
STIRRUPS
10
4750.0
20
40
30
0
11
4750.0
21
460.0
31
0
0
ENDSEC
0
EOF
