0
SECTION
2
HEADER
9
$ACADVER
1
AC1009
0
ENDSEC
0
SECTION
2
TABLES
0
TABLE
2
LAYER
70
4
0
LAYER
2
0
70
0
62
7
6
CONTINUOUS
0
LAYER
2
BAOEES_PROJECT
70
0
62
7
6
CONTINUOUS
0
LAYER
2
BAOEES_GEOMETRY
70
0
62
7
6
CONTINUOUS
0
LAYER
2
BAOEES_TEXT
70
0
62
7
6
CONTINUOUS
0
ENDTAB
0
ENDSEC
0
SECTION
2
ENTITIES
0
LINE
8
BAOEES_GEOMETRY
10
0
20
0
30
0
11
70
21
0
31
0
0
LINE
8
BAOEES_GEOMETRY
10
5
20
0
30
0
11
5
21
25
31
0
0
LINE
8
BAOEES_GEOMETRY
10
65
20
0
30
0
11
65
21
25
31
0
0
LINE
8
BAOEES_GEOMETRY
10
5
20
25
30
0
11
35
21
40
31
0
0
LINE
8
BAOEES_GEOMETRY
10
35
20
40
30
0
11
65
21
25
31
0
0
LINE
8
BAOEES_GEOMETRY
10
5
20
12
30
0
11
65
21
12
31
0
0
TEXT
8
BAOEES_TEXT
10
2
20
-8
30
0
40
3
1
Schematische doorsnede
0
TEXT
8
BAOEES_TEXT
10
8
20
14
30
0
40
2.5
1
Verdieping / constructieniveau
0
LINE
8
BAOEES_PROJECT
10
0
20
-40
30
0
11
100
21
-40
31
0
0
LINE
8
BAOEES_PROJECT
10
100
20
-40
30
0
11
100
21
-22
31
0
0
LINE
8
BAOEES_PROJECT
10
100
20
-22
30
0
11
0
21
-22
31
0
0
LINE
8
BAOEES_PROJECT
10
0
20
-22
30
0
11
0
21
-40
31
0
0
TEXT
8
BAOEES_TEXT
10
2
20
-26
30
0
40
2.5
1
Titel: Plutostraat met BAOEES V3 - Doorsnede
0
TEXT
8
BAOEES_TEXT
10
2
20
-30
30
0
40
2.5
1
Project: Plutostraat met BAOEES V3
0
TEXT
8
BAOEES_TEXT
10
2
20
-34
30
0
40
2.5
1
Locatie: Plutostraat, Paramaribo, Suriname
0
TEXT
8
BAOEES_TEXT
10
2
20
-38
30
0
40
2.5
1
Type: Bouw | BAOEES V3 DXF export
0
ENDSEC
0
EOF