<svg xmlns="http://www.w3.org/2000/svg" width="420mm" height="297mm" viewBox="0 0 1190.551 841.89">
<rect width="100%" height="100%" fill="white"/>
<!-- line-width:0.35mm -->
<rect x="28.346" y="28.346" width="1133.858" height="785.197" fill="none" stroke="#1f2937" stroke-width="1.276"/>
<line x1="28.346" y1="717.165" x2="1162.205" y2="717.165" stroke="#1f2937" stroke-width="1.276"/>
<line x1="793.701" y1="813.543" x2="793.701" y2="717.165" stroke="#1f2937" stroke-width="0.992"/>
<text x="39.685" y="748.346" font-family="Arial, sans-serif" font-size="13" font-weight="bold" text-anchor="start" fill="#111827">Uitbreiding moskee Haci Bayram</text>
<text x="39.685" y="771.024" font-family="Arial, sans-serif" font-size="9" font-weight="normal" text-anchor="start" fill="#111827">Bikkersweg 88, Bunschoten</text>
<text x="39.685" y="793.701" font-family="Arial, sans-serif" font-size="10" font-weight="bold" text-anchor="start" fill="#991b1b">CONCEPT - NOT FOR SUBMISSION OR EXECUTION</text>
<text x="805.039" y="742.677" font-family="Arial, sans-serif" font-size="11" font-weight="bold" text-anchor="start" fill="#111827">SHEET A-301</text>
<text x="805.039" y="765.354" font-family="Arial, sans-serif" font-size="9" font-weight="bold" text-anchor="start" fill="#111827">Sections</text>
<text x="805.039" y="788.031" font-family="Arial, sans-serif" font-size="8" font-weight="normal" text-anchor="start" fill="#111827">Scale 1:100 | ARCHITECTURE / STRUCTURE</text>
<text x="1150.866" y="788.031" font-family="Arial, sans-serif" font-size="8" font-weight="normal" text-anchor="end" fill="#111827">Issue 2026-07-27</text>
<text x="1150.866" y="742.677" font-family="Arial, sans-serif" font-size="10" font-weight="bold" text-anchor="end" fill="#111827">PROJECT PHOENIX</text>
<line x1="155.906" y1="388.346" x2="439.37" y2="388.346" stroke="#1f2937" stroke-width="2.126"/>
<line x1="155.906" y1="297.638" x2="439.37" y2="297.638" stroke="#1f2937" stroke-width="1.843"/>
<line x1="155.906" y1="206.929" x2="439.37" y2="206.929" stroke="#1f2937" stroke-width="1.843"/>
<line x1="155.906" y1="388.346" x2="155.906" y2="195.591" stroke="#1f2937" stroke-width="1.559"/>
<line x1="439.37" y1="388.346" x2="439.37" y2="195.591" stroke="#1f2937" stroke-width="1.559"/>
<line x1="155.906" y1="195.591" x2="439.37" y2="195.591" stroke="#1f2937" stroke-width="1.559"/>
<rect x="141.732" y="394.016" width="42.52" height="11.339" fill="#e5e7eb" stroke="#1f2937" stroke-width="0.992"/>
<rect x="411.024" y="394.016" width="42.52" height="11.339" fill="#e5e7eb" stroke="#1f2937" stroke-width="0.992"/>
<line x1="255.118" y1="388.346" x2="262.205" y2="388.346" stroke="#1f2937" stroke-width="0.567"/>
<line x1="262.205" y1="377.008" x2="269.291" y2="377.008" stroke="#1f2937" stroke-width="0.567"/>
<line x1="269.291" y1="365.669" x2="276.378" y2="365.669" stroke="#1f2937" stroke-width="0.567"/>
<line x1="276.378" y1="354.331" x2="283.465" y2="354.331" stroke="#1f2937" stroke-width="0.567"/>
<line x1="283.465" y1="342.992" x2="290.551" y2="342.992" stroke="#1f2937" stroke-width="0.567"/>
<line x1="290.551" y1="331.654" x2="297.638" y2="331.654" stroke="#1f2937" stroke-width="0.567"/>
<line x1="297.638" y1="320.315" x2="304.724" y2="320.315" stroke="#1f2937" stroke-width="0.567"/>
<line x1="304.724" y1="308.976" x2="311.811" y2="308.976" stroke="#1f2937" stroke-width="0.567"/>
<text x="297.638" y="416.693" font-family="Arial, sans-serif" font-size="8" font-weight="bold" text-anchor="middle" fill="#111827">Section A-A longitudinal</text>
<text x="133.228" y="388.346" font-family="Arial, sans-serif" font-size="7" font-weight="normal" text-anchor="end" fill="#111827">P=0.000</text>
<text x="133.228" y="297.638" font-family="Arial, sans-serif" font-size="7" font-weight="normal" text-anchor="end" fill="#111827">+3.200</text>
<text x="133.228" y="206.929" font-family="Arial, sans-serif" font-size="7" font-weight="normal" text-anchor="end" fill="#111827">+6.400</text>
<text x="133.228" y="195.591" font-family="Arial, sans-serif" font-size="7" font-weight="normal" text-anchor="end" fill="#111827">+6.800</text>
<line x1="694.488" y1="388.346" x2="892.913" y2="388.346" stroke="#1f2937" stroke-width="2.126"/>
<line x1="694.488" y1="297.638" x2="892.913" y2="297.638" stroke="#1f2937" stroke-width="1.843"/>
<line x1="694.488" y1="206.929" x2="892.913" y2="206.929" stroke="#1f2937" stroke-width="1.843"/>
<line x1="694.488" y1="388.346" x2="694.488" y2="195.591" stroke="#1f2937" stroke-width="1.559"/>
<line x1="892.913" y1="388.346" x2="892.913" y2="195.591" stroke="#1f2937" stroke-width="1.559"/>
<line x1="694.488" y1="195.591" x2="892.913" y2="195.591" stroke="#1f2937" stroke-width="1.559"/>
<rect x="680.315" y="394.016" width="42.52" height="11.339" fill="#e5e7eb" stroke="#1f2937" stroke-width="0.992"/>
<rect x="864.567" y="394.016" width="42.52" height="11.339" fill="#e5e7eb" stroke="#1f2937" stroke-width="0.992"/>
<line x1="763.937" y1="388.346" x2="771.024" y2="388.346" stroke="#1f2937" stroke-width="0.567"/>
<line x1="771.024" y1="377.008" x2="778.11" y2="377.008" stroke="#1f2937" stroke-width="0.567"/>
<line x1="778.11" y1="365.669" x2="785.197" y2="365.669" stroke="#1f2937" stroke-width="0.567"/>
<line x1="785.197" y1="354.331" x2="792.283" y2="354.331" stroke="#1f2937" stroke-width="0.567"/>
<line x1="792.283" y1="342.992" x2="799.37" y2="342.992" stroke="#1f2937" stroke-width="0.567"/>
<line x1="799.37" y1="331.654" x2="806.457" y2="331.654" stroke="#1f2937" stroke-width="0.567"/>
<line x1="806.457" y1="320.315" x2="813.543" y2="320.315" stroke="#1f2937" stroke-width="0.567"/>
<line x1="813.543" y1="308.976" x2="820.63" y2="308.976" stroke="#1f2937" stroke-width="0.567"/>
<text x="793.701" y="416.693" font-family="Arial, sans-serif" font-size="8" font-weight="bold" text-anchor="middle" fill="#111827">Section B-B transverse</text>
<text x="671.811" y="388.346" font-family="Arial, sans-serif" font-size="7" font-weight="normal" text-anchor="end" fill="#111827">P=0.000</text>
<text x="671.811" y="297.638" font-family="Arial, sans-serif" font-size="7" font-weight="normal" text-anchor="end" fill="#111827">+3.200</text>
<text x="671.811" y="206.929" font-family="Arial, sans-serif" font-size="7" font-weight="normal" text-anchor="end" fill="#111827">+6.400</text>
<text x="671.811" y="195.591" font-family="Arial, sans-serif" font-size="7" font-weight="normal" text-anchor="end" fill="#111827">+6.800</text>
<text x="595.276" y="586.772" font-family="Arial, sans-serif" font-size="9" font-weight="bold" text-anchor="middle" fill="#111827">Foundation dimensions are simulation assumptions. Geotechnical and structural verification is mandatory.</text>
</svg>
